# xmcd CD database file
#
# Track frame offsets:
#	150
#	18717
#	38320
#
# Disc length: 760 seconds
#
# Revision: 1
# Processed by: cddbd v1.5.1PL0 Copyright (c) Steve Scherf et al.
# Submitted via: CDex 1.51
#
DISCID=1702f603
DTITLE=GARNET CROW - 君の家に着くまでずっと走ってゆく
DYEAR=2000
DGENRE=JPop
TTITLE0=君の家に着くまでずっと走ってゆく
TTITLE1=in little time
TTITLE2=君の家に着くまでずっと走ってゆく -Instrumental-
EXTD=YEAR: 2000
EXTT0=
EXTT1=
EXTT2=
PLAYORDER=
